<svg width="204" height="51" viewBox="0 0 204 51" fill="none" xmlns="http://www.w3.org/2000/svg">
<g clip-path="url(#clip0_10_146)">
<path d="M52.15 15.91C51.24 16.13 50.68 17.06 50.9 17.97C51.12 18.88 52.04 19.44 52.96 19.22C53.87 19 54.43 18.07 54.21 17.16C53.98 16.25 53.07 15.69 52.15 15.91Z" fill="#0076FF"/>
<path d="M47.46 8.08999C48.07 7.93999 48.69 7.97999 49.3 8.07999C38.31 -1.59001 21.93 -1.27001 11.76 9.60999C2.94999 20.41 4.04999 35.47 13.9 45.2C15.59 46.77 17.18 47.72 18.94 48.69C19.96 49.25 20.72 48.54 19.43 47.77C18.29 47.08 17.34 46.28 16.36 45.45C7.71999 37.18 6.52999 24.23 14.18 14.89C22.54 5.99999 35.71 5.35999 45.28 12.23C45.24 12.11 45.2 12 45.17 11.87C44.76 10.19 45.78 8.49999 47.46 8.08999Z" fill="#0076FF"/>
<path d="M52.02 11.74C51.68 10.35 50.29 9.49999 48.9 9.83999C47.51 10.18 46.67 11.58 47.01 12.96C47.35 14.35 48.75 15.19 50.13 14.86C51.51 14.53 52.36 13.13 52.02 11.74Z" fill="#0076FF"/>
<path d="M33.7 13.26C33.93 12.63 34.63 12.31 35.26 12.55C35.89 12.78 36.2 13.48 35.97 14.11C35.73 14.74 35.04 15.05 34.41 14.82C33.78 14.58 33.46 13.88 33.7 13.26ZM39.28 45.26C38.44 45.61 37.58 45.93 36.69 46.17C28.36 47.93 20.27 43.4 17.85 35.15C15.99 26.67 20.89 18.67 28.77 15.81C28.69 15.79 28.6 15.76 28.52 15.73C27.37 15.3 26.78 14.01 27.21 12.86C27.37 12.44 27.64 12.09 27.94 11.78C17.85 14.36 11.47 24.12 13.78 34.45C16.59 43.96 25.89 49.32 35.56 47.44C37.08 47.11 38.32 46.6 39.65 45.94C40.3 45.63 40.27 44.85 39.28 45.26ZM29.91 15.1C30.86 15.45 31.92 14.98 32.27 14.03C32.63 13.08 32.15 12.02 31.2 11.66C30.25 11.3 29.19 11.79 28.84 12.74C28.47 13.68 28.95 14.74 29.91 15.1Z" fill="#A4C3FF"/>
<path d="M41.81 41.21C40.15 41.21 38.66 40.86 37.34 40.16C36.02 39.46 34.99 38.49 34.25 37.25C33.51 35.99 33.14 34.57 33.14 32.99C33.14 31.41 33.51 30 34.25 28.76C34.99 27.52 36.01 26.55 37.31 25.85C38.63 25.15 40.13 24.8 41.81 24.8C43.39 24.8 44.77 25.12 45.95 25.76C47.15 26.4 48.05 27.32 48.65 28.52L45.77 30.2C45.31 29.46 44.73 28.91 44.03 28.55C43.35 28.17 42.6 27.98 41.78 27.98C40.38 27.98 39.22 28.44 38.3 29.36C37.38 30.26 36.92 31.47 36.92 32.99C36.92 34.51 37.37 35.73 38.27 36.65C39.19 37.55 40.36 38 41.78 38C42.6 38 43.35 37.82 44.03 37.46C44.73 37.08 45.31 36.52 45.77 35.78L48.65 37.46C48.03 38.66 47.12 39.59 45.92 40.25C44.74 40.89 43.37 41.21 41.81 41.21ZM66.7173 33.08C66.7173 33.34 66.6973 33.71 66.6573 34.19H54.0873C54.3073 35.37 54.8773 36.31 55.7973 37.01C56.7373 37.69 57.8973 38.03 59.2773 38.03C61.0373 38.03 62.4873 37.45 63.6273 36.29L65.6373 38.6C64.9173 39.46 64.0073 40.11 62.9073 40.55C61.8073 40.99 60.5673 41.21 59.1873 41.21C57.4273 41.21 55.8773 40.86 54.5373 40.16C53.1973 39.46 52.1573 38.49 51.4173 37.25C50.6973 35.99 50.3373 34.57 50.3373 32.99C50.3373 31.43 50.6873 30.03 51.3873 28.79C52.1073 27.53 53.0973 26.55 54.3573 25.85C55.6173 25.15 57.0373 24.8 58.6173 24.8C60.1773 24.8 61.5673 25.15 62.7873 25.85C64.0273 26.53 64.9873 27.5 65.6673 28.76C66.3673 30 66.7173 31.44 66.7173 33.08ZM58.6173 27.8C57.4173 27.8 56.3973 28.16 55.5573 28.88C54.7373 29.58 54.2373 30.52 54.0573 31.7H63.1473C62.9873 30.54 62.4973 29.6 61.6773 28.88C60.8573 28.16 59.8373 27.8 58.6173 27.8ZM73.8894 27.32C74.9694 25.64 76.8694 24.8 79.5894 24.8V28.37C79.2694 28.31 78.9794 28.28 78.7194 28.28C77.2594 28.28 76.1194 28.71 75.2994 29.57C74.4794 30.41 74.0694 31.63 74.0694 33.23V41H70.3194V24.98H73.8894V27.32ZM82.7705 24.98H86.5205V41H82.7705V24.98ZM84.6605 22.34C83.9805 22.34 83.4105 22.13 82.9505 21.71C82.4905 21.27 82.2605 20.73 82.2605 20.09C82.2605 19.45 82.4905 18.92 82.9505 18.5C83.4105 18.06 83.9805 17.84 84.6605 17.84C85.3405 17.84 85.9105 18.05 86.3705 18.47C86.8305 18.87 87.0605 19.38 87.0605 20C87.0605 20.66 86.8305 21.22 86.3705 21.68C85.9305 22.12 85.3605 22.34 84.6605 22.34ZM106.952 24.98V41H103.382V38.96C102.782 39.68 102.032 40.24 101.132 40.64C100.232 41.02 99.2624 41.21 98.2224 41.21C96.0824 41.21 94.3924 40.62 93.1524 39.44C91.9324 38.24 91.3224 36.47 91.3224 34.13V24.98H95.0724V33.62C95.0724 35.06 95.3924 36.14 96.0324 36.86C96.6924 37.56 97.6224 37.91 98.8224 37.91C100.162 37.91 101.222 37.5 102.002 36.68C102.802 35.84 103.202 34.64 103.202 33.08V24.98H106.952ZM132.082 24.8C134.102 24.8 135.702 25.39 136.882 26.57C138.062 27.73 138.652 29.48 138.652 31.82V41H134.902V32.3C134.902 30.9 134.592 29.85 133.972 29.15C133.352 28.43 132.462 28.07 131.302 28.07C130.042 28.07 129.032 28.49 128.272 29.33C127.512 30.15 127.132 31.33 127.132 32.87V41H123.382V32.3C123.382 30.9 123.072 29.85 122.452 29.15C121.832 28.43 120.942 28.07 119.782 28.07C118.502 28.07 117.482 28.48 116.722 29.3C115.982 30.12 115.612 31.31 115.612 32.87V41H111.862V24.98H115.432V27.02C116.032 26.3 116.782 25.75 117.682 25.37C118.582 24.99 119.582 24.8 120.682 24.8C121.882 24.8 122.942 25.03 123.862 25.49C124.802 25.93 125.542 26.59 126.082 27.47C126.742 26.63 127.592 25.98 128.632 25.52C129.672 25.04 130.822 24.8 132.082 24.8Z" fill="black"/>
<path d="M146.505 33.05C147.495 33.05 148.28 33.34 148.86 33.92C149.45 34.49 149.745 35.325 149.745 36.425V41H148.68V36.53C148.68 35.71 148.475 35.085 148.065 34.655C147.655 34.225 147.07 34.01 146.31 34.01C145.46 34.01 144.785 34.265 144.285 34.775C143.795 35.275 143.55 35.97 143.55 36.86V41H142.485V33.11H143.505V34.565C143.795 34.085 144.195 33.715 144.705 33.455C145.225 33.185 145.825 33.05 146.505 33.05ZM159.536 37.385H152.936C152.996 38.205 153.311 38.87 153.881 39.38C154.451 39.88 155.171 40.13 156.041 40.13C156.531 40.13 156.981 40.045 157.391 39.875C157.801 39.695 158.156 39.435 158.456 39.095L159.056 39.785C158.706 40.205 158.266 40.525 157.736 40.745C157.216 40.965 156.641 41.075 156.011 41.075C155.201 41.075 154.481 40.905 153.851 40.565C153.231 40.215 152.746 39.735 152.396 39.125C152.046 38.515 151.871 37.825 151.871 37.055C151.871 36.285 152.036 35.595 152.366 34.985C152.706 34.375 153.166 33.9 153.746 33.56C154.336 33.22 154.996 33.05 155.726 33.05C156.456 33.05 157.111 33.22 157.691 33.56C158.271 33.9 158.726 34.375 159.056 34.985C159.386 35.585 159.551 36.275 159.551 37.055L159.536 37.385ZM155.726 33.965C154.966 33.965 154.326 34.21 153.806 34.7C153.296 35.18 153.006 35.81 152.936 36.59H158.531C158.461 35.81 158.166 35.18 157.646 34.7C157.136 34.21 156.496 33.965 155.726 33.965ZM165.873 40.52C165.673 40.7 165.423 40.84 165.123 40.94C164.833 41.03 164.528 41.075 164.208 41.075C163.468 41.075 162.898 40.875 162.498 40.475C162.098 40.075 161.898 39.51 161.898 38.78V34.01H160.488V33.11H161.898V31.385H162.963V33.11H165.363V34.01H162.963V38.72C162.963 39.19 163.078 39.55 163.308 39.8C163.548 40.04 163.888 40.16 164.328 40.16C164.548 40.16 164.758 40.125 164.958 40.055C165.168 39.985 165.348 39.885 165.498 39.755L165.873 40.52ZM179.246 33.11L176.261 41H175.256L172.766 34.535L170.276 41H169.271L166.301 33.11H167.321L169.796 39.815L172.331 33.11H173.246L175.766 39.815L178.271 33.11H179.246ZM183.855 41.075C183.095 41.075 182.41 40.905 181.8 40.565C181.19 40.215 180.71 39.735 180.36 39.125C180.01 38.515 179.835 37.825 179.835 37.055C179.835 36.285 180.01 35.595 180.36 34.985C180.71 34.375 181.19 33.9 181.8 33.56C182.41 33.22 183.095 33.05 183.855 33.05C184.615 33.05 185.3 33.22 185.91 33.56C186.52 33.9 186.995 34.375 187.335 34.985C187.685 35.595 187.86 36.285 187.86 37.055C187.86 37.825 187.685 38.515 187.335 39.125C186.995 39.735 186.52 40.215 185.91 40.565C185.3 40.905 184.615 41.075 183.855 41.075ZM183.855 40.13C184.415 40.13 184.915 40.005 185.355 39.755C185.805 39.495 186.155 39.13 186.405 38.66C186.655 38.19 186.78 37.655 186.78 37.055C186.78 36.455 186.655 35.92 186.405 35.45C186.155 34.98 185.805 34.62 185.355 34.37C184.915 34.11 184.415 33.98 183.855 33.98C183.295 33.98 182.79 34.11 182.34 34.37C181.9 34.62 181.55 34.98 181.29 35.45C181.04 35.92 180.915 36.455 180.915 37.055C180.915 37.655 181.04 38.19 181.29 38.66C181.55 39.13 181.9 39.495 182.34 39.755C182.79 40.005 183.295 40.13 183.855 40.13ZM191.054 34.655C191.304 34.125 191.674 33.725 192.164 33.455C192.664 33.185 193.279 33.05 194.009 33.05V34.085L193.754 34.07C192.924 34.07 192.274 34.325 191.804 34.835C191.334 35.345 191.099 36.06 191.099 36.98V41H190.034V33.11H191.054V34.655ZM198.862 37.04L197.002 38.75V41H195.937V29.87H197.002V37.415L201.712 33.11H203.032L199.657 36.335L203.347 41H202.042L198.862 37.04ZM206.827 41.075C206.187 41.075 205.572 40.985 204.982 40.805C204.402 40.615 203.947 40.38 203.617 40.1L204.097 39.26C204.427 39.52 204.842 39.735 205.342 39.905C205.842 40.065 206.362 40.145 206.902 40.145C207.622 40.145 208.152 40.035 208.492 39.815C208.842 39.585 209.017 39.265 209.017 38.855C209.017 38.565 208.922 38.34 208.732 38.18C208.542 38.01 208.302 37.885 208.012 37.805C207.722 37.715 207.337 37.63 206.857 37.55C206.217 37.43 205.702 37.31 205.312 37.19C204.922 37.06 204.587 36.845 204.307 36.545C204.037 36.245 203.902 35.83 203.902 35.3C203.902 34.64 204.177 34.1 204.727 33.68C205.277 33.26 206.042 33.05 207.022 33.05C207.532 33.05 208.042 33.12 208.552 33.26C209.062 33.39 209.482 33.565 209.812 33.785L209.347 34.64C208.697 34.19 207.922 33.965 207.022 33.965C206.342 33.965 205.827 34.085 205.477 34.325C205.137 34.565 204.967 34.88 204.967 35.27C204.967 35.57 205.062 35.81 205.252 35.99C205.452 36.17 205.697 36.305 205.987 36.395C206.277 36.475 206.677 36.56 207.187 36.65C207.817 36.77 208.322 36.89 208.702 37.01C209.082 37.13 209.407 37.335 209.677 37.625C209.947 37.915 210.082 38.315 210.082 38.825C210.082 39.515 209.792 40.065 209.212 40.475C208.642 40.875 207.847 41.075 206.827 41.075Z" fill="#585858"/>
</g>
<defs>
<clipPath id="clip0_10_146">
<rect width="203.7" height="50.01" fill="white"/>
</clipPath>
</defs>
</svg>
