<svg width="255" height="50" viewBox="0 0 255 50" fill="none" xmlns="http://www.w3.org/2000/svg">
<path d="M37.41 33.32C37.41 36.1 38.64 39.04 41.84 39.04C43.97 39.04 45.46 37.62 45.82 35.23H49.5C48.82 39.56 46.14 41.95 41.84 41.95C36.6 41.95 33.73 38.23 33.73 33.32C33.73 28.28 36.48 24.33 41.97 24.33C45.85 24.33 49.15 26.27 49.5 30.37H45.82C45.53 28.33 44.04 27.23 42.01 27.23C40.09 27.25 37.41 28.25 37.41 33.32ZM66.37 34.1H54.09C54.09 36.72 55.51 39.05 58.58 39.05C60.71 39.05 62.01 38.11 62.65 36.27H66.14C65.33 39.92 62.23 41.96 58.58 41.96C53.34 41.96 50.4 38.31 50.4 33.17C50.4 28.42 53.5 24.35 58.48 24.35C63.75 24.34 66.98 29.09 66.37 34.1ZM62.68 31.68C62.55 29.35 60.97 27.25 58.48 27.25C55.93 27.25 54.18 29.19 54.08 31.68H62.68ZM71.41 28.02H71.35V24.79H67.89V41.5H71.57V33.55C71.57 29.86 73.57 27.83 76.1 27.83C76.62 27.83 77.17 27.93 77.68 27.99V24.43C77.36 24.4 77.13 24.33 76.29 24.33C74.03 24.34 71.83 26.25 71.41 28.02ZM79.36 21.91H83.04V18.42H79.36V21.91ZM79.36 41.5H83.04V24.79H79.36V41.5ZM96.1 34.49C96.1 37.08 95.07 39.05 92 39.05C89.99 39.05 88.8 37.98 88.8 35.04V24.79H85.12V35.39C85.12 39.75 87 41.95 91.36 41.95C93.2 41.95 95.21 40.85 96.11 39.17H96.17V41.5H99.79V24.79H96.1V34.49ZM120.4 24.34C117.98 24.34 116.39 25.41 115.16 27.12C114.42 25.21 112.51 24.34 110.47 24.34C107.82 24.34 106.43 25.47 105.33 27.12H105.23V24.79H101.74V41.5H105.43V31.58C105.43 28.8 107.17 27.25 109.08 27.25C111.31 27.25 112.02 28.48 112.02 30.77V41.5H115.7V31.71C115.7 28.9 116.77 27.25 119.25 27.25C122.13 27.25 122.29 29.09 122.29 31.74V41.5H125.98V29.96C125.99 25.89 123.92 24.34 120.4 24.34Z" fill="black"/>
<path d="M137.43 35.68V41.51H138.57V35.49C138.57 33.26 137.77 31.88 135.15 31.88C133.83 31.88 132.58 32.64 132.16 33.76H132.12V32.15H130.98V41.5H132.12V36.05C132.16 34.22 133.24 32.84 135.06 32.84C136.9 32.86 137.43 34.07 137.43 35.68Z" fill="#585858"/>
<path d="M143.77 31.9C140.8 31.9 139.55 34.38 139.55 36.85C139.55 39.51 140.8 41.8 143.77 41.8C146.13 41.8 147.36 40.57 147.85 38.45H146.71C146.35 39.86 145.44 40.84 143.77 40.84C141.58 40.84 140.71 38.83 140.69 37.16H147.88C147.97 34.52 146.78 31.9 143.77 31.9ZM140.69 36.19C140.87 34.49 141.9 32.86 143.77 32.86C145.62 32.86 146.69 34.47 146.74 36.19H140.69Z" fill="#585858"/>
<path d="M150.53 29.36H149.39V32.17H147.76V33.13H149.39V39.53C149.37 41.12 149.9 41.63 151.42 41.63C151.76 41.63 152.09 41.59 152.43 41.59V40.61C152.1 40.65 151.78 40.66 151.45 40.66C150.63 40.61 150.53 40.17 150.53 39.43V33.13H152.43V32.17H150.53V29.36V29.36Z" fill="#585858"/>
<path d="M165.93 32.17H164.72L162.32 40.18H162.29L160.01 32.17H158.72L156.44 40.18H156.4L154.01 32.17H152.79L155.8 41.52H157.05L159.33 33.65H159.37L161.67 41.52H162.92L165.93 32.17Z" fill="#585858"/>
<path d="M170.4 31.9C167.54 31.9 165.98 34.16 165.98 36.85C165.98 39.53 167.54 41.8 170.4 41.8C173.26 41.8 174.82 39.54 174.82 36.85C174.83 34.16 173.27 31.9 170.4 31.9ZM170.4 40.83C168.21 40.83 167.12 38.84 167.12 36.84C167.12 34.85 168.21 32.85 170.4 32.85C172.59 32.85 173.68 34.84 173.68 36.84C173.68 38.84 172.6 40.83 170.4 40.83Z" fill="#585858"/>
<path d="M177.27 34.36H177.23V32.17H176.18V41.52H177.32V36.53C177.32 34.59 178.73 33.07 180.8 33.18V32.04C179.12 31.97 177.85 32.86 177.27 34.36Z" fill="#585858"/>
<path d="M182.69 37.97L184.54 36.43L188.23 41.52H189.66L185.41 35.63L189.39 32.17H187.87L182.69 36.7V28.58H181.55V41.52H182.69V37.97Z" fill="#585858"/>
<path d="M194.65 36.39L193.13 36.05C192.35 35.85 191.19 35.49 191.19 34.47C191.19 33.26 192.39 32.86 193.4 32.86C194.71 32.86 195.79 33.49 195.85 34.91H196.99C196.92 32.88 195.43 31.9 193.57 31.9C191.92 31.9 190.06 32.62 190.06 34.53C190.06 36.12 191.18 36.63 192.67 37.03L194.14 37.36C195.17 37.61 196.19 37.98 196.19 39.06C196.19 40.36 194.71 40.84 193.64 40.84C192.12 40.84 190.98 40.04 190.89 38.5H189.75C189.93 40.78 191.42 41.8 193.59 41.8C195.33 41.8 197.34 41.02 197.34 38.99C197.31 37.35 195.95 36.59 194.65 36.39Z" fill="#585858"/>
<path d="M52.15 15.91C51.24 16.13 50.68 17.06 50.9 17.97C51.12 18.88 52.04 19.44 52.96 19.22C53.87 19 54.43 18.07 54.21 17.16C53.98 16.25 53.07 15.69 52.15 15.91Z" fill="#0076FF"/>
<path d="M47.46 8.09C48.07 7.94 48.69 7.98 49.3 8.08C38.31 -1.59 21.93 -1.27 11.76 9.61C2.94999 20.41 4.04999 35.47 13.9 45.2C15.59 46.77 17.18 47.72 18.94 48.69C19.96 49.25 20.72 48.54 19.43 47.77C18.29 47.08 17.34 46.28 16.36 45.45C7.71999 37.18 6.52999 24.23 14.18 14.89C22.54 6 35.71 5.36 45.28 12.23C45.24 12.11 45.2 12 45.17 11.87C44.76 10.19 45.78 8.5 47.46 8.09Z" fill="#0076FF"/>
<path d="M52.02 11.74C51.68 10.35 50.29 9.5 48.9 9.84C47.51 10.18 46.67 11.58 47.01 12.96C47.35 14.35 48.75 15.19 50.13 14.86C51.51 14.53 52.36 13.13 52.02 11.74Z" fill="#0076FF"/>
<path d="M33.7 13.26C33.93 12.63 34.63 12.31 35.26 12.55C35.89 12.78 36.2 13.48 35.97 14.11C35.73 14.74 35.04 15.05 34.41 14.82C33.78 14.58 33.46 13.88 33.7 13.26ZM39.28 45.26C38.44 45.61 37.58 45.93 36.69 46.17C28.36 47.93 20.27 43.4 17.85 35.15C15.99 26.67 20.89 18.67 28.77 15.81C28.69 15.79 28.6 15.76 28.52 15.73C27.37 15.3 26.78 14.01 27.21 12.86C27.37 12.44 27.64 12.09 27.94 11.78C17.85 14.36 11.47 24.12 13.78 34.45C16.59 43.96 25.89 49.32 35.56 47.44C37.08 47.11 38.32 46.6 39.65 45.94C40.3 45.63 40.27 44.85 39.28 45.26ZM29.91 15.1C30.86 15.45 31.92 14.98 32.27 14.03C32.63 13.08 32.15 12.02 31.2 11.66C30.25 11.3 29.19 11.79 28.84 12.74C28.47 13.68 28.95 14.74 29.91 15.1Z" fill="#A4C3FF"/>
<path d="M207.377 42.2045C206.572 42.2045 205.866 41.9915 205.261 41.5653C204.656 41.1392 204.183 40.5447 203.842 39.782C203.506 39.0192 203.337 38.1307 203.337 37.1165C203.337 36.1065 203.506 35.2223 203.842 34.4638C204.183 33.701 204.658 33.1087 205.268 32.6868C205.877 32.2607 206.586 32.0476 207.396 32.0476C207.993 32.0476 208.489 32.1541 208.885 32.3672C209.282 32.576 209.599 32.8359 209.838 33.147C210.077 33.4581 210.262 33.7607 210.394 34.0547H210.496V28.9091H211.64V42H210.528V40.1783H210.394C210.262 40.4766 210.074 40.7834 209.832 41.0987C209.589 41.4098 209.267 41.6719 208.866 41.8849C208.47 42.098 207.974 42.2045 207.377 42.2045ZM207.511 41.1626C208.146 41.1626 208.687 40.9901 209.135 40.6449C209.582 40.2955 209.923 39.8161 210.158 39.2067C210.396 38.593 210.515 37.8899 210.515 37.0973C210.515 36.3132 210.398 35.6207 210.164 35.0199C209.93 34.4148 209.589 33.9418 209.141 33.6009C208.694 33.2557 208.15 33.0831 207.511 33.0831C206.855 33.0831 206.301 33.2621 205.849 33.62C205.402 33.9737 205.061 34.4531 204.827 35.0582C204.596 35.6634 204.481 36.343 204.481 37.0973C204.481 37.8601 204.599 38.5483 204.833 39.1619C205.067 39.7756 205.408 40.2635 205.856 40.6257C206.307 40.9837 206.859 41.1626 207.511 41.1626ZM218.851 42.2045C217.935 42.2045 217.142 41.9915 216.473 41.5653C215.804 41.1349 215.286 40.5405 214.92 39.782C214.557 39.0192 214.376 38.1413 214.376 37.1484C214.376 36.1598 214.557 35.282 214.92 34.5149C215.286 33.7436 215.791 33.1406 216.435 32.706C217.082 32.267 217.83 32.0476 218.678 32.0476C219.211 32.0476 219.724 32.1456 220.219 32.3416C220.713 32.5334 221.156 32.8295 221.548 33.2301C221.944 33.6264 222.258 34.1271 222.488 34.7322C222.718 35.3331 222.833 36.0447 222.833 36.8672V37.4297H215.162V36.4261H221.67C221.67 35.7955 221.542 35.2287 221.286 34.7259C221.035 34.2187 220.683 33.8182 220.231 33.5241C219.784 33.2301 219.266 33.0831 218.678 33.0831C218.056 33.0831 217.508 33.2493 217.035 33.5817C216.562 33.9141 216.192 34.353 215.923 34.8984C215.659 35.4439 215.525 36.0405 215.52 36.6882V37.2891C215.52 38.0689 215.655 38.7507 215.923 39.3345C216.196 39.9141 216.582 40.3636 217.08 40.6832C217.579 41.0028 218.169 41.1626 218.851 41.1626C219.315 41.1626 219.722 41.0902 220.072 40.9453C220.425 40.8004 220.721 40.6065 220.96 40.3636C221.203 40.1165 221.386 39.8459 221.51 39.5518L222.59 39.9034C222.441 40.3168 222.196 40.6982 221.855 41.0476C221.518 41.397 221.096 41.6783 220.589 41.8913C220.086 42.1001 219.507 42.2045 218.851 42.2045ZM225.34 42V32.1818H226.446V33.6903H226.548C226.744 33.1832 227.07 32.7848 227.526 32.495C227.987 32.201 228.538 32.054 229.182 32.054C229.859 32.054 230.416 32.2138 230.85 32.5334C231.289 32.8487 231.617 33.2834 231.835 33.8374H231.918C232.139 33.2919 232.499 32.8594 232.998 32.5398C233.501 32.2159 234.11 32.054 234.826 32.054C235.738 32.054 236.458 32.3416 236.987 32.9169C237.515 33.4879 237.779 34.3232 237.779 35.4226V42H236.641V35.4226C236.641 34.647 236.443 34.0653 236.047 33.6776C235.651 33.2898 235.129 33.0959 234.481 33.0959C233.731 33.0959 233.153 33.326 232.749 33.7862C232.344 34.2464 232.141 34.8303 232.141 35.5376V42H230.978V35.3203C230.978 34.6555 230.793 34.1186 230.422 33.7095C230.051 33.3004 229.529 33.0959 228.856 33.0959C228.404 33.0959 227.997 33.2067 227.635 33.4283C227.277 33.6499 226.994 33.9588 226.785 34.3551C226.58 34.7472 226.478 35.1989 226.478 35.7102V42H225.34ZM244.607 42.2045C243.759 42.2045 243.009 41.9893 242.357 41.5589C241.71 41.1286 241.203 40.5341 240.836 39.7756C240.47 39.0128 240.286 38.1328 240.286 37.1357C240.286 36.13 240.47 35.2457 240.836 34.483C241.203 33.7159 241.71 33.1193 242.357 32.6932C243.009 32.2628 243.759 32.0476 244.607 32.0476C245.455 32.0476 246.203 32.2628 246.851 32.6932C247.499 33.1236 248.006 33.7202 248.372 34.483C248.743 35.2457 248.928 36.13 248.928 37.1357C248.928 38.1328 248.745 39.0128 248.379 39.7756C248.012 40.5341 247.503 41.1286 246.851 41.5589C246.203 41.9893 245.455 42.2045 244.607 42.2045ZM244.607 41.1626C245.289 41.1626 245.867 40.9794 246.34 40.6129C246.813 40.2464 247.171 39.7585 247.414 39.1491C247.661 38.5398 247.784 37.8686 247.784 37.1357C247.784 36.4027 247.661 35.7294 247.414 35.1158C247.171 34.5021 246.813 34.0099 246.34 33.6392C245.867 33.2685 245.289 33.0831 244.607 33.0831C243.93 33.0831 243.352 33.2685 242.875 33.6392C242.402 34.0099 242.042 34.5021 241.795 35.1158C241.552 35.7294 241.431 36.4027 241.431 37.1357C241.431 37.8686 241.552 38.5398 241.795 39.1491C242.042 39.7585 242.402 40.2464 242.875 40.6129C243.348 40.9794 243.926 41.1626 244.607 41.1626Z" fill="#585858"/>
</svg>
